<svg id="Capa_1" data-name="Capa 1" xmlns="http://www.w3.org/2000/svg" viewBox="0 0 512 512"><defs><style>.cls-1{fill:#ffce58;stroke:#ffce58;stroke-miterlimit:10;stroke-width:0.25px;}</style></defs><g id="deadline"><path id="Path_5239" data-name="Path 5239" class="cls-1" d="M199.64,423a14.61,14.61,0,0,0,14.61-14.61h0V348.91h98.12a14.62,14.62,0,0,0,11.91-23.07l-22.57-31.78,22.57-31.78a14.62,14.62,0,0,0-11.91-23.07H199.64A14.61,14.61,0,0,0,185,253.82V408.37A14.6,14.6,0,0,0,199.63,423Zm72.25-120.47,12.19,17.17H214.25V268.44h69.82l-12.19,17.17a14.59,14.59,0,0,0,0,16.91Z"/><path id="Path_5240" data-name="Path 5240" class="cls-1" d="M460.54,61H428.07V37.59a14.61,14.61,0,0,0-29.22,0V61H270.61V37.59a14.61,14.61,0,0,0-29.22,0V61H113.15V37.59a14.61,14.61,0,0,0-29.22,0V61H51.46A43.88,43.88,0,0,0,7.63,104.8V445a43.88,43.88,0,0,0,43.83,43.83H460.54A43.88,43.88,0,0,0,504.37,445V104.8A43.88,43.88,0,0,0,460.54,61ZM36.85,104.8A14.64,14.64,0,0,1,51.46,90.18H83.93v17.54a14.61,14.61,0,1,0,29.22.44v-18H241.39v17.54a14.61,14.61,0,1,0,29.22.44v-18H398.85v17.54a14.61,14.61,0,1,0,29.22.44v-18h32.47a14.64,14.64,0,0,1,14.61,14.62v61.33H36.85ZM475.15,445a14.62,14.62,0,0,1-14.61,14.61H51.46A14.62,14.62,0,0,1,36.85,445V195.35h438.3Z"/></g></svg>