<svg id="Capa_1" data-name="Capa 1" xmlns="http://www.w3.org/2000/svg" viewBox="0 0 512 512"><defs><style>.cls-1{fill:#ffce58;stroke:#ffce58;stroke-miterlimit:10;stroke-width:5px;}</style></defs><g id="icon"><path class="cls-1" d="M258.12,504a247.63,247.63,0,0,1-136.33-40.67,11.63,11.63,0,1,1,12.78-19.44,225,225,0,0,0,123.55,36.83c124.44,0,225.61-101.17,225.61-225.61S382.56,29.45,258.12,29.45,32.64,130.62,32.64,255.06A226,226,0,0,0,65,371.58a11.65,11.65,0,0,1-20,12A248.53,248.53,0,0,1,9.24,254.93C9.24,117.7,120.89,6.05,258.12,6.05S507,117.7,507,254.93,395.48,504,258.12,504Z"/><path class="cls-1" d="M258.12,445.75A191.69,191.69,0,0,1,209,439.36a11.71,11.71,0,0,1,6-22.64,168.12,168.12,0,0,0,43.1,5.63c92.34,0,167.42-75.07,167.42-167.42S350.46,87.52,258.12,87.52,90.71,162.72,90.71,255.06a166.84,166.84,0,0,0,5.37,42.21,11.63,11.63,0,0,1-22.51,5.88,190,190,0,0,1-6.14-48.09C67.43,149.8,153,64.24,258.25,64.24S449.07,149.8,449.07,255.06,363.38,445.75,258.12,445.75Z"/><path class="cls-1" d="M304.93,262.74a54.49,54.49,0,1,1,54.49-54.49A54.53,54.53,0,0,1,304.93,262.74Zm0-85.57A31.08,31.08,0,1,0,336,208.25,31.11,31.11,0,0,0,304.93,177.17Z"/><path class="cls-1" d="M142.38,425.68a54.89,54.89,0,0,1-22.39-105h0l27.25-12.15a43.56,43.56,0,0,1,57.55,57.56l-12.15,27.24a55.08,55.08,0,0,1-40.16,31.59,68.67,68.67,0,0,1-10.1.77ZM129.46,342A31.49,31.49,0,1,0,171,383.6l12.15-27.24a20.11,20.11,0,0,0-26.61-26.61Z"/><path class="cls-1" d="M15.89,508.94a11.67,11.67,0,0,1-2.69-23l12-2.81a24.15,24.15,0,0,0,18.55-24.81A47.25,47.25,0,0,1,80,409.43l3.07-.77a23.54,23.54,0,0,0,11.39-6.39l9.2-9.21a11.67,11.67,0,0,1,16.5,16.5l-9.21,9.21A47.48,47.48,0,0,1,88.53,431.3l-3.07.77a24,24,0,0,0-18.29,24.81,47.39,47.39,0,0,1-36.45,49l-12,2.81a22.59,22.59,0,0,1-2.81.26Z"/></g></svg>