<svg id="Capa_1" data-name="Capa 1" xmlns="http://www.w3.org/2000/svg" viewBox="0 0 512 512"><defs><style>.cls-1{fill:#ffce58;}</style></defs><path class="cls-1" d="M256,0C115,0,0,115.1,0,256S115.1,512,256,512,512,397,512,256,397,0,256,0Zm0,482C131.4,482,30,380.6,30,256A225.16,225.16,0,0,1,89.8,103c5.3,13,16.7,58.3,65,94.7a157.26,157.26,0,0,0,2.3,22.8c-26.2-7.6-56.4-.2-77.3,20.8l-1.1,1.1a45,45,0,0,0,34.5,76.7,106.45,106.45,0,0,0-.2,15c1,20.1,7.5,49.3,32.8,74.6a105.2,105.2,0,0,0,148.5,0l14.8-14.8a164,164,0,0,0,47.8-103.3A105,105,0,1,0,245.5,118.2a104.11,104.11,0,0,0-20.6,29.2,44.91,44.91,0,0,0-64.3,16c-33.1-31.3-36.1-58.5-47.5-82.1A224.77,224.77,0,0,1,256.2,30.1c124.6,0,226,101.4,226,226S380.6,482,256,482ZM188.1,345.1a74.89,74.89,0,0,0,11.1-91.8A134.19,134.19,0,0,1,185,183.9a14.92,14.92,0,0,1,15.9-14A15.14,15.14,0,0,1,215,185.8a105.12,105.12,0,0,0,65.5,104.1l11.2-27.8a73.41,73.41,0,0,1-25-16.6,75.13,75.13,0,1,1,72,19.5l-11.1,2.9c-.2,11.7-.2,11.7-.2,12.8a134.15,134.15,0,0,1-39.5,92L273,387.5a75.2,75.2,0,0,1-106.1,0c-35-35-22.5-80.8-19.4-86.2l6.7-8.8-20.4-20.4-12.7,12.7a15.09,15.09,0,0,1-21.2,0,14.91,14.91,0,0,1,0-21.2l1.1-1.1c16.7-16.7,42.5-19.9,60-7.2a45,45,0,0,1,5.9,68.6Z"/></svg>